<svg xmlns="http://www.w3.org/2000/svg" viewBox="0 0 268 44" fill="none">
  <g transform="translate(2, 2)">
    <path fill="#e8f4f0" d="M2.8 30.0V4.4H28.0Q35.76 4.4 39.44 5.92Q43.12 7.44 43.12 11.2Q43.12 13.6 41.54 14.88Q39.96 16.16 37.02 16.66Q34.08 17.16 29.96 17.28L30.28 16.96Q33.28 16.96 35.84 17.12Q38.4 17.28 40.32 17.84Q42.24 18.4 43.32 19.56Q44.4 20.72 44.4 22.76Q44.4 25.24 42.64 26.84Q40.88 28.44 37.64 29.22Q34.4 30.0 30.0 30.0ZM12.8 22.48H30.0Q32.12 22.48 33.06 22.08Q34.0 21.68 34.0 20.8Q34.0 20.2 33.58 19.84Q33.16 19.48 32.28 19.3Q31.4 19.12 30.0 19.12H12.8ZM12.8 15.28H28.32Q30.44 15.28 31.38 14.88Q32.32 14.48 32.32 13.6Q32.32 12.68 31.38 12.3Q30.44 11.92 28.32 11.92H12.8ZM60.8 19.2V22.4H91.2V30.0H50.8V4.4H91.12V12.0H60.8V15.2H85.6V19.2ZM138.92 22.16L135.2 24.28V4.4H145.2V30.0H135.2L105.08 12.56L108.8 10.4V30.0H98.8V4.4H108.8ZM153.2 30.0V4.4H178.4Q186.16 4.4 189.84 5.92Q193.52 7.44 193.52 11.2Q193.52 13.6 191.94 14.88Q190.36 16.16 187.42 16.66Q184.48 17.16 180.36 17.28L180.68 16.96Q183.68 16.96 186.24 17.12Q188.8 17.28 190.72 17.84Q192.64 18.4 193.72 19.56Q194.8 20.72 194.8 22.76Q194.8 25.24 193.04 26.84Q191.28 28.44 188.04 29.22Q184.8 30.0 180.4 30.0ZM163.2 22.48H180.4Q182.52 22.48 183.46 22.08Q184.4 21.68 184.4 20.8Q184.4 20.2 183.98 19.84Q183.56 19.48 182.68 19.3Q181.8 19.12 180.4 19.12H163.2ZM163.2 15.28H178.72Q180.84 15.28 181.78 14.88Q182.72 14.48 182.72 13.6Q182.72 12.68 181.78 12.3Q180.84 11.92 178.72 11.92H163.2Z"/>
    <path fill="#edf060" d="M201.8 4.4H211.8V30.0H201.8ZM226.96 26.12V20.12H254.32V26.12ZM218.0 30.0L235.16 4.4H246.28L263.6 30.0H252.6L237.76 7.08H243.72L229.0 30.0Z"/>
  </g>
</svg>
